# xmcd
#
# Track frame offsets:
#	150
#	8218
#	17978
#	26499
#	44524
#	59700
#	72323
#	85955
#	95706
#	106316
#	119740
#
# Disc length: 1892 seconds
#
# Revision: 0
# Processed by: cddbd v1.5.2PL0 Copyright (c) Steve Scherf et al.
# Submitted via: audiograbber 1.83.01
#
DISCID=9d07620b
DTITLE=The Baboon Show - The World Is Bigger Than You
DYEAR=2016
DGENRE=Punk Rock
TTITLE0=Class War
TTITLE1=I Will Go On
TTITLE2=Choose To Ignore
TTITLE3=Working All Night And Day
TTITLE4=My Myself And I
TTITLE5=Dig On
TTITLE6=The Hermit
TTITLE7=Take It Back
TTITLE8=Work Work Work
TTITLE9=Tonight
TTITLE10=Lost You In A Second
EXTD=
EXTT0=
EXTT1=
EXTT2=
EXTT3=
EXTT4=
EXTT5=
EXTT6=
EXTT7=
EXTT8=
EXTT9=
EXTT10=
PLAYORDER=
